<?xml version="1.0" encoding="UTF-8"?>
<svg xmlns="http://www.w3.org/2000/svg" viewBox="0 0 84 84" width="84" height="84" role="img" aria-label="Avatar">
  <defs>
    <linearGradient id="eagle-bg" x1="0%" y1="0%" x2="100%" y2="100%">
      <stop offset="0%" stop-color="#5eb0e8"/>
      <stop offset="55%" stop-color="#2d7fc4"/>
      <stop offset="100%" stop-color="#1a4f8c"/>
    </linearGradient>
    <linearGradient id="eagle-beak" x1="0%" y1="0%" x2="100%" y2="0%">
      <stop offset="0%" stop-color="#ffb366"/>
      <stop offset="100%" stop-color="#e87830"/>
    </linearGradient>
  </defs>
  <circle cx="42" cy="42" r="41" fill="url(#eagle-bg)"/>
  <circle cx="42" cy="42" r="41" fill="none" stroke="rgba(255,255,255,0.35)" stroke-width="1.5"/>
  <path fill="#0d2847" d="M20 36c6-12 20-19 33-17 8 1 15 5 19 12-4 1-8 1-12 0l-3 9c-5-3-11-4-17-1-7 3-12 8-15 15l-5-18z"/>
  <ellipse cx="50" cy="34" rx="6" ry="7.5" fill="#ffffff" opacity="0.95"/>
  <ellipse cx="52.5" cy="35" rx="2.8" ry="3.5" fill="#1a3355"/>
  <path fill="url(#eagle-beak)" d="M61 31l18 4-12 7c-3-4-4-8-6-11z"/>
  <path fill="#0d2847" opacity="0.85" d="M26 55c8 5 19 7 29 3l4 12c-12 4-26 3-37-5l4-10z"/>
</svg>
